<?xml version="1.0" standalone="no"?>
<!DOCTYPE svg PUBLIC "-//W3C//DTD SVG 20010904//EN"
 "http://www.w3.org/TR/2001/REC-SVG-20010904/DTD/svg10.dtd">
<svg version="1.0" xmlns="http://www.w3.org/2000/svg"
 width="1250.000000pt" height="292.000000pt" viewBox="0 0 1250.000000 292.000000"
 preserveAspectRatio="xMidYMid meet">
<metadata>
Created by potrace 1.15, written by Peter Selinger 2001-2017
</metadata>
<g transform="translate(0.000000,292.000000) scale(0.100000,-0.100000)"
fill="#000000" stroke="none">
<path d="M678 2820 c-201 -34 -328 -128 -412 -303 -59 -123 -95 -263 -161
-627 -66 -367 -69 -450 -21 -552 49 -104 146 -167 291 -188 181 -27 412 31
511 129 98 96 176 276 200 459 l7 52 -202 0 c-230 0 -201 14 -222 -110 -13
-78 -54 -176 -83 -196 -11 -8 -37 -14 -57 -14 -29 0 -43 6 -59 28 -37 45 -29
106 85 647 25 121 56 241 67 268 24 55 59 87 97 87 41 0 62 -21 68 -67 5 -38
-11 -186 -24 -219 -4 -12 26 -14 203 -12 l209 3 13 65 c7 36 14 121 15 190 2
113 0 130 -22 177 -41 92 -128 156 -249 182 -59 12 -182 13 -254 1z"/>
<path d="M1722 2800 c-200 -54 -334 -184 -417 -405 -58 -153 -145 -573 -163
-784 -14 -166 12 -268 91 -349 75 -78 176 -112 332 -112 116 0 212 21 300 64
215 106 306 286 410 811 71 356 72 531 5 639 -27 44 -99 98 -170 127 -80 32
-284 37 -388 9z m168 -320 c51 -27 46 -83 -53 -573 -72 -352 -93 -413 -151
-441 -47 -22 -80 -20 -112 8 -26 22 -28 29 -27 92 1 66 117 673 147 775 32
105 73 149 138 149 22 0 48 -5 58 -10z"/>
<path d="M8282 2805 c-143 -31 -286 -128 -363 -248 -82 -126 -138 -330 -230
-827 -7 -36 -12 -123 -13 -195 0 -115 2 -136 22 -180 27 -58 80 -117 137 -150
94 -56 295 -72 441 -35 289 73 407 243 517 745 61 276 71 350 72 505 0 131 -2
150 -23 195 -43 93 -119 153 -241 189 -67 20 -230 20 -319 1z m152 -331 c41
-41 36 -95 -48 -516 -85 -424 -105 -476 -187 -498 -47 -13 -86 2 -107 40 -20
38 -4 169 54 435 8 39 28 135 45 215 43 210 65 275 106 310 26 24 43 30 78 30
26 0 50 -6 59 -16z"/>
<path d="M2526 2773 c-3 -10 -44 -209 -90 -443 -47 -234 -117 -580 -156 -770
-38 -190 -70 -350 -70 -357 0 -10 42 -13 183 -13 l183 0 13 73 c7 39 55 281
105 536 l93 465 6 -244 c4 -134 7 -375 7 -537 l0 -294 141 3 140 3 100 245
c55 135 152 375 216 533 63 158 117 286 119 284 2 -2 -10 -69 -27 -148 -16
-79 -64 -308 -104 -509 -41 -201 -77 -375 -80 -387 l-5 -23 199 0 199 0 17 93
c9 50 28 142 41 202 13 61 51 250 84 420 66 340 168 840 176 868 5 16 -14 17
-294 17 l-299 0 -83 -212 c-45 -117 -121 -312 -167 -433 l-84 -220 5 140 c5
125 14 319 31 623 l6 102 -300 0 c-277 0 -300 -1 -305 -17z"/>
<path d="M4135 2778 c-4 -13 -144 -710 -164 -818 -5 -30 -42 -210 -80 -400
-39 -189 -71 -350 -71 -357 0 -10 43 -13 193 -13 l192 0 54 273 c30 149 56
278 59 285 3 8 33 12 103 12 268 0 428 88 521 286 75 161 109 418 72 543 -22
75 -89 140 -174 171 -62 23 -78 24 -383 28 -255 3 -318 1 -322 -10z m469 -337
c35 -33 40 -68 22 -165 -25 -128 -48 -171 -113 -205 -24 -12 -133 -15 -133 -3
0 9 66 338 76 376 7 28 8 28 65 24 44 -3 65 -10 83 -27z"/>
<path d="M5175 2778 c-2 -7 -23 -110 -45 -228 -22 -118 -54 -276 -70 -350 -16
-74 -50 -243 -75 -374 -42 -211 -47 -251 -43 -340 3 -89 7 -108 33 -156 38
-69 117 -134 193 -157 71 -22 279 -25 362 -4 138 33 247 109 317 218 61 96 85
189 199 758 13 66 48 238 77 383 l54 262 -198 0 -198 0 -10 -52 c-6 -29 -60
-299 -120 -600 -71 -358 -117 -564 -131 -593 -27 -56 -61 -80 -113 -80 -52 0
-77 30 -77 94 0 41 126 689 209 1079 17 78 31 145 31 147 0 3 -88 5 -195 5
-148 0 -197 -3 -200 -12z"/>
<path d="M6285 2768 c-12 -53 -128 -622 -145 -718 -11 -58 -53 -271 -95 -474
-41 -203 -75 -373 -75 -378 0 -4 82 -8 183 -8 l182 0 97 488 c54 268 102 507
106 532 l9 45 6 -55 c3 -30 8 -268 11 -528 2 -261 7 -477 11 -480 10 -11 266
-15 276 -5 8 8 225 527 377 902 36 90 67 160 69 155 3 -8 -184 -954 -203
-1031 l-6 -23 199 0 199 0 43 223 c24 122 58 294 77 382 18 88 56 277 84 420
43 216 90 443 115 553 l5 22 -302 -2 -303 -3 -160 -407 c-88 -223 -166 -419
-173 -435 -12 -30 -11 68 8 502 5 116 10 240 10 278 l0 67 -300 0 -300 0 -5
-22z"/>
<path d="M9066 2768 c-3 -12 -21 -102 -40 -198 -19 -96 -56 -274 -81 -395 -25
-121 -63 -305 -85 -410 -45 -220 -108 -520 -115 -552 l-5 -23 342 0 c372 0
420 5 520 56 110 56 205 197 248 368 22 86 26 199 9 259 -14 50 -64 106 -117
129 l-43 19 60 30 c139 70 218 238 209 448 -3 83 -7 103 -31 143 -34 58 -77
92 -153 120 -55 21 -81 22 -386 26 l-327 4 -5 -24z m473 -306 c37 -27 46 -66
32 -136 -25 -122 -69 -169 -168 -182 -92 -11 -90 -40 -22 295 l11 54 61 -7
c35 -3 73 -14 86 -24z m-119 -607 c40 -21 50 -43 50 -113 0 -114 -46 -209
-117 -238 -18 -8 -62 -14 -98 -14 -63 0 -65 1 -60 23 3 12 19 90 35 172 17 83
33 158 36 168 4 14 17 17 65 17 34 0 73 -7 89 -15z"/>
<path d="M10186 2773 c-3 -10 -23 -108 -45 -218 -23 -110 -61 -297 -85 -415
-24 -118 -66 -318 -91 -445 -26 -126 -60 -291 -75 -365 -15 -74 -27 -136 -26
-137 0 0 93 -3 205 -4 l205 -3 47 239 c26 132 59 294 73 360 14 66 64 311 111
545 47 234 88 433 91 443 5 16 -9 17 -200 17 -186 0 -205 -2 -210 -17z"/>
<path d="M10730 2784 c0 -7 -129 -647 -181 -899 -88 -422 -139 -689 -133 -694
3 -3 191 -6 417 -6 l412 0 27 110 c15 61 30 129 34 153 l6 42 -211 0 c-201 0
-211 1 -211 19 0 11 14 84 30 163 65 305 213 1045 218 1081 l4 37 -206 0
c-113 0 -206 -3 -206 -6z"/>
<path d="M11650 2738 c-6 -29 -49 -240 -96 -468 -46 -228 -112 -550 -146 -715
-78 -384 -75 -361 -46 -368 34 -8 781 -8 794 1 6 4 23 68 38 142 15 74 30 143
32 153 5 16 -10 17 -215 17 l-220 0 6 37 c3 20 18 93 33 162 l26 126 181 3
180 2 26 113 c15 61 30 131 33 155 l7 42 -183 0 -182 0 5 23 c3 12 18 84 33
160 l28 137 218 0 c120 0 218 2 218 5 0 3 14 73 30 157 17 83 30 155 30 160 0
4 -184 8 -409 8 l-409 0 -12 -52z"/>
<path d="M5005 585 c-4 -47 -5 -96 -3 -110 6 -31 5 -31 -33 -3 -55 41 -162 25
-216 -34 -32 -34 -43 -71 -43 -141 0 -112 66 -187 162 -187 52 0 79 10 116 43
l22 20 0 -26 c0 -20 6 -28 24 -33 14 -3 30 -3 35 1 7 4 11 99 11 281 l0 274
-34 0 -34 0 -7 -85z m-80 -155 c7 0 27 -11 44 -25 55 -47 51 -170 -7 -215 -40
-32 -117 -24 -148 16 -42 52 -40 158 4 197 23 21 64 37 80 31 8 -2 20 -4 27
-4z"/>
<path d="M6099 568 c-1 -57 -1 -106 0 -110 2 -12 -5 -10 -45 14 -44 26 -116
28 -161 4 -66 -34 -97 -103 -91 -201 7 -105 68 -165 170 -165 53 0 88 15 116
48 10 14 12 12 12 -11 0 -24 4 -27 35 -27 l35 0 0 275 0 275 -35 0 -35 0 -1
-102z m-37 -167 c31 -28 33 -33 32 -93 -1 -73 -13 -102 -54 -123 -100 -52
-188 34 -161 158 13 57 49 87 106 87 35 0 52 -6 77 -29z"/>
<path d="M8320 652 c-41 -20 -70 -71 -70 -124 0 -37 -1 -38 -35 -38 -32 0 -35
-2 -35 -30 0 -28 3 -30 35 -30 l35 0 0 -160 0 -160 35 0 35 0 0 160 0 160 50
0 c49 0 50 1 50 30 0 29 -1 30 -50 30 l-50 0 0 34 c0 48 33 86 75 86 25 0 35
5 40 20 3 11 3 24 0 30 -10 16 -77 12 -115 -8z"/>
<path d="M3656 647 c-12 -9 -17 -23 -14 -42 2 -25 8 -31 33 -33 46 -6 71 40
39 72 -19 19 -35 20 -58 3z"/>
<path d="M8492 638 c-31 -31 9 -84 52 -69 16 6 21 17 21 42 0 30 -3 34 -30 37
-17 2 -36 -3 -43 -10z"/>
<path d="M2423 593 c-20 -4 -23 -11 -23 -54 l0 -49 -35 0 c-32 0 -35 -2 -35
-30 0 -28 3 -30 35 -30 l35 0 0 -120 c0 -144 11 -173 68 -190 20 -7 55 -10 77
-8 35 3 40 6 43 31 3 26 1 27 -37 27 -70 0 -81 20 -81 150 l0 110 55 0 c54 0
55 0 55 30 0 30 -1 30 -55 30 l-55 0 0 55 c0 57 0 57 -47 48z"/>
<path d="M3388 593 c-14 -3 -18 -15 -18 -54 l0 -49 -35 0 c-32 0 -35 -2 -35
-30 0 -28 3 -30 35 -30 l35 0 0 -120 c0 -171 24 -205 136 -198 45 3 49 5 52
31 3 26 1 27 -41 27 -69 0 -77 15 -77 148 l0 112 55 0 c54 0 55 0 55 30 0 30
-1 30 -55 30 l-55 0 0 55 c0 58 -4 61 -52 48z"/>
<path d="M3955 485 c-157 -42 -179 -289 -32 -359 72 -34 239 -11 223 30 -3 9
-6 22 -6 29 0 12 -6 12 -35 -1 -19 -7 -57 -14 -86 -14 -45 0 -55 4 -85 34 -21
21 -34 44 -34 59 0 25 1 25 72 20 40 -3 101 -2 135 2 l63 7 0 39 c0 79 -43
138 -115 158 -47 13 -37 13 -100 -4z m123 -80 c12 -14 22 -35 22 -46 0 -18 -8
-19 -100 -19 -78 0 -100 3 -100 14 0 19 39 66 64 77 35 14 89 2 114 -26z"/>
<path d="M4425 490 c-17 -5 -40 -19 -52 -30 -29 -26 -33 -25 -33 6 0 23 -3 25
-32 22 l-33 -3 0 -185 0 -185 35 0 35 0 5 132 c4 116 8 135 25 153 41 41 133
42 151 2 4 -9 10 -78 13 -152 l6 -135 30 0 30 0 3 142 c3 154 -5 188 -51 217
-29 20 -95 27 -132 16z"/>
<path d="M5277 486 c-59 -16 -71 -27 -62 -56 5 -15 12 -19 23 -15 35 13 112
24 129 18 33 -11 53 -36 53 -63 0 -26 -3 -28 -57 -35 -138 -16 -183 -45 -183
-115 0 -23 5 -50 10 -61 26 -47 134 -65 191 -32 16 10 29 21 29 25 0 4 5 8 10
8 6 0 10 -9 10 -20 0 -16 7 -20 30 -20 l30 0 0 140 c0 107 -4 148 -15 170 -29
56 -114 80 -198 56z m143 -221 c0 -65 -62 -115 -124 -99 -38 9 -57 51 -37 82
11 19 79 41 124 42 33 0 37 -3 37 -25z"/>
<path d="M6406 489 c-85 -20 -135 -89 -136 -186 0 -65 13 -99 52 -140 51 -53
148 -72 231 -44 32 11 37 17 37 43 0 27 -2 29 -22 22 -13 -4 -56 -8 -95 -8
-81 -1 -106 13 -122 72 l-10 32 97 1 c53 1 114 1 135 0 l37 -3 0 54 c0 33 -7
67 -18 88 -31 56 -112 87 -186 69z m89 -63 c19 -8 35 -16 35 -18 0 -2 4 -18 9
-36 l10 -32 -105 0 -104 0 13 33 c8 19 27 39 48 49 41 22 50 22 94 4z"/>
<path d="M7045 486 c-92 -29 -135 -89 -135 -188 0 -117 76 -190 198 -190 76 0
102 13 102 53 0 27 -2 30 -22 22 -13 -4 -49 -8 -80 -8 -46 0 -61 4 -82 24 -64
60 -50 190 23 221 30 12 112 10 144 -4 14 -7 17 -3 17 27 0 34 -1 36 -50 46
-61 13 -64 13 -115 -3z"/>
<path d="M7431 489 c-90 -18 -144 -89 -144 -190 0 -113 77 -189 191 -189 120
0 192 73 192 192 0 65 -28 128 -67 156 -25 18 -104 44 -123 41 -3 -1 -25 -5
-49 -10z m118 -75 c26 -19 51 -71 51 -108 0 -45 -31 -106 -61 -121 -37 -20
-99 -19 -128 1 -67 47 -67 181 1 228 29 21 107 20 137 0z"/>
<path d="M7920 490 c-19 -5 -45 -20 -57 -35 l-23 -26 0 31 c0 29 -2 31 -32 28
l-33 -3 0 -185 0 -185 31 -3 c31 -3 31 -2 37 50 4 29 7 86 7 126 0 109 23 141
101 142 76 0 84 -16 86 -179 l3 -136 32 0 33 0 3 138 c3 165 -7 199 -72 228
-44 20 -62 21 -116 9z"/>
<path d="M8762 482 c-29 -11 -54 -21 -56 -23 -2 -2 -2 -16 1 -32 4 -20 9 -25
18 -17 20 17 105 29 138 19 36 -10 47 -24 47 -60 0 -25 -4 -27 -57 -33 -88
-10 -128 -24 -157 -52 -44 -45 -30 -131 25 -160 45 -23 120 -18 163 11 33 22
36 23 36 6 0 -20 48 -36 63 -21 5 4 7 71 5 148 -3 124 -5 144 -24 169 -42 56
-120 74 -202 45z m148 -223 c0 -44 -17 -69 -57 -85 -64 -27 -123 5 -109 61 7
29 61 51 134 54 29 1 32 -1 32 -30z"/>
<path d="M9257 486 c-21 -8 -47 -22 -57 -31 -17 -16 -19 -15 -22 7 -2 18 -10
24 -35 26 l-33 3 0 -191 0 -191 33 3 32 3 5 127 c5 124 6 127 34 157 24 25 38
31 73 31 75 0 83 -16 83 -174 0 -81 4 -137 10 -141 6 -4 24 -3 41 0 l31 7 -4
142 c-2 115 -6 147 -21 169 -36 55 -105 77 -170 53z"/>
<path d="M10039 490 c-65 -11 -91 -27 -87 -53 3 -24 6 -24 86 -8 76 15 122
-10 122 -68 0 -15 -12 -20 -57 -25 -138 -16 -183 -46 -183 -121 0 -38 5 -52
29 -76 26 -25 37 -29 86 -29 54 0 115 22 115 42 0 4 5 8 10 8 6 0 10 -12 10
-26 0 -22 4 -25 27 -22 36 4 46 45 41 178 -2 83 -7 112 -24 140 -31 54 -91 74
-175 60z m121 -233 c0 -36 -37 -79 -78 -92 -30 -9 -80 12 -87 36 -17 51 34 84
133 88 30 1 32 -1 32 -32z"/>
<path d="M2677 484 c-12 -12 5 -288 20 -316 37 -74 174 -79 231 -10 10 14 12
12 12 -10 0 -29 17 -39 49 -31 21 5 21 9 19 187 l-3 181 -32 3 c-33 3 -33 3
-35 -45 0 -26 0 -71 1 -99 6 -110 -35 -174 -110 -174 -29 0 -42 6 -58 26 -19
24 -21 40 -21 160 l0 134 -33 0 c-19 0 -37 -3 -40 -6z"/>
<path d="M3650 305 l0 -185 35 0 35 0 0 185 0 185 -35 0 -35 0 0 -185z"/>
<path d="M8490 306 l0 -186 25 -6 c55 -14 56 -10 53 188 l-3 183 -37 3 -38 3
0 -185z"/>
<path d="M9550 460 l0 -30 100 0 c55 0 100 -2 100 -5 0 -6 -104 -134 -172
-214 -23 -26 -38 -54 -38 -70 l0 -26 153 0 152 0 3 28 3 27 -88 2 c-48 1 -96
2 -105 1 -10 0 -18 2 -18 4 0 2 97 127 194 247 12 15 16 31 11 45 -6 20 -12
21 -151 21 l-144 0 0 -30z"/>
</g>
</svg>
